<svg width="1496" height="712" viewBox="0 0 1496 712" fill="none" xmlns="http://www.w3.org/2000/svg">
<path d="M0.888835 56.8084C0.389514 46.2424 8.20399 37.1147 18.7207 35.9798L347.5 0.5L740 9L1122.5 49.5L1465.18 63.2453C1475.75 63.6693 1484.17 72.2505 1484.38 82.8266L1495.64 642.238C1495.85 652.37 1488.44 661.052 1478.4 662.45L1124.55 711.715C1123.19 711.904 1121.81 711.953 1120.44 711.86L740 686L379.663 609.565C377.896 609.19 376.086 609.056 374.283 609.167L48.2497 629.253C37.1133 629.939 27.569 621.38 27.0423 610.234L0.888835 56.8084Z" fill="#F9E3ED"/>
</svg>
