<svg width="33" height="33" viewBox="0 0 33 33" fill="none" xmlns="http://www.w3.org/2000/svg">
<path d="M16.9616 21.3457C19.723 21.3457 21.9616 19.1071 21.9616 16.3457C21.9616 13.5843 19.723 11.3457 16.9616 11.3457C14.2001 11.3457 11.9616 13.5843 11.9616 16.3457C11.9616 19.1071 14.2001 21.3457 16.9616 21.3457Z" stroke="black" stroke-width="3" stroke-miterlimit="10"/>
<path d="M22.4616 4.8457H11.4616C8.14786 4.8457 5.46157 7.53199 5.46157 10.8457V21.8457C5.46157 25.1594 8.14786 27.8457 11.4616 27.8457H22.4616C25.7753 27.8457 28.4616 25.1594 28.4616 21.8457V10.8457C28.4616 7.53199 25.7753 4.8457 22.4616 4.8457Z" stroke="black" stroke-width="3" stroke-linecap="round" stroke-linejoin="round"/>
<path d="M23.4616 11.3457C24.29 11.3457 24.9616 10.6741 24.9616 9.8457C24.9616 9.01728 24.29 8.3457 23.4616 8.3457C22.6331 8.3457 21.9616 9.01728 21.9616 9.8457C21.9616 10.6741 22.6331 11.3457 23.4616 11.3457Z" fill="black"/>
</svg>
