<svg width="50" height="50" viewBox="0 0 50 50" fill="none" xmlns="http://www.w3.org/2000/svg">
<path d="M9.375 28.125C12.6902 28.125 15.8696 29.442 18.2138 31.7862C20.558 34.1304 21.875 37.3098 21.875 40.625" stroke="#808080" stroke-width="3" stroke-linecap="round" stroke-linejoin="round"/>
<path d="M9.375 18.75C15.1766 18.75 20.7406 21.0547 24.843 25.157C28.9453 29.2594 31.25 34.8234 31.25 40.625" stroke="#808080" stroke-width="3" stroke-linecap="round" stroke-linejoin="round"/>
<path d="M9.375 9.37505C13.4795 9.36734 17.5449 10.1729 21.3364 11.7451C25.1278 13.3173 28.5703 15.6251 31.4648 18.5352C34.3749 21.4298 36.6827 24.8722 38.255 28.6637C39.8272 32.4551 40.6327 36.5205 40.625 40.6251" stroke="#808080" stroke-width="3" stroke-linecap="round" stroke-linejoin="round"/>
<path d="M10.1562 42.1875C11.4507 42.1875 12.5 41.1382 12.5 39.8438C12.5 38.5493 11.4507 37.5 10.1562 37.5C8.86183 37.5 7.8125 38.5493 7.8125 39.8438C7.8125 41.1382 8.86183 42.1875 10.1562 42.1875Z" fill="#808080"/>
</svg>
