<svg width="390" height="681" viewBox="0 0 390 681" fill="none" xmlns="http://www.w3.org/2000/svg">
<path d="M415.808 0.453878C425.606 0.192167 434.149 7.069 435.987 16.6962L462.573 155.948C462.857 157.436 462.971 158.951 462.913 160.464L456.211 335.388C456.173 336.367 456.064 337.342 455.884 338.305L423.538 510.978L413.165 657.164C412.428 667.547 403.851 675.629 393.442 675.747L-52.2672 680.82C-61.5549 680.925 -69.6931 674.623 -71.9145 665.604L-109.127 514.523C-109.704 512.179 -109.852 509.749 -109.564 507.352L-89.3483 339.246C-89.1575 337.66 -88.7775 336.102 -88.2163 334.607L-28.7233 176.075C-27.6231 173.143 -27.2267 169.994 -27.5659 166.881L-42.0128 34.3261C-43.2794 22.7043 -34.3509 12.4785 -22.6646 12.1663L415.808 0.453878Z" fill="#F9E3ED"/>
</svg>
